HIERARCHY
ROOT Hips
{
	OFFSET 0.000000 0.000000 0.000000
	CHANNELS 6 Xposition Yposition Zposition Zrotation Yrotation Xrotation 
	JOINT LowerBack
	{
		OFFSET 0.000000 0.000000 0.000000
		CHANNELS 3 Zrotation Yrotation Xrotation
		JOINT Spine
		{
			OFFSET 0.028270 2.035590 -0.193380
			CHANNELS 3 Zrotation Yrotation Xrotation
			JOINT Spine1
			{
				OFFSET 0.056720 2.048850 -0.042750
				CHANNELS 3 Zrotation Yrotation Xrotation
				JOINT Neck
				{
					OFFSET 0.000000 0.000000 0.000000
					CHANNELS 3 Zrotation Yrotation Xrotation
					JOINT Neck1
					{
						OFFSET -0.054170 1.746240 0.172020
						CHANNELS 3 Zrotation Yrotation Xrotation
						JOINT Head
						{
							OFFSET 0.104070 1.761360 -0.123970
							CHANNELS 3 Zrotation Yrotation Xrotation
							End Site
							{
								OFFSET 0.000000 0.000000 0.000000
							}
						}
					}
				}
				JOINT LeftShoulder
				{
					OFFSET 0.000000 0.000000 0.000000
					CHANNELS 3 Zrotation Yrotation Xrotation
					JOINT LeftArm
					{
						OFFSET 3.362410 1.200890 -0.311210
						CHANNELS 3 Zrotation Yrotation Xrotation
						JOINT LeftForeArm
						{
							OFFSET 4.983000 -0.000000 -0.000000
							CHANNELS 3 Zrotation Yrotation Xrotation
							JOINT LeftHand
							{
								OFFSET 3.483560 -0.000000 -0.000000
								CHANNELS 3 Zrotation Yrotation Xrotation
								JOINT LeftFingerBase
								{
									OFFSET 0.000000 0.000000 0.000000
									CHANNELS 3 Zrotation Yrotation Xrotation
									JOINT LeftHandIndex1
									{
										OFFSET 0.715260 -0.000000 -0.000000
										CHANNELS 3 Zrotation Yrotation Xrotation
										End Site
										{
											OFFSET 0.000000 0.000000 0.000000
										}
									}
								}
								JOINT LThumb
								{
									OFFSET 0.000000 0.000000 0.000000
									CHANNELS 3 Zrotation Yrotation Xrotation
									End Site
									{
										OFFSET 0.000000 0.000000 0.000000
									}
								}
							}
						}
					}
				}
				JOINT RightShoulder
				{
					OFFSET 0.000000 0.000000 0.000000
					CHANNELS 3 Zrotation Yrotation Xrotation
					JOINT RightArm
					{
						OFFSET -3.136600 1.374050 -0.404650
						CHANNELS 3 Zrotation Yrotation Xrotation
						JOINT RightForeArm
						{
							OFFSET -5.241900 -0.000000 -0.000000
							CHANNELS 3 Zrotation Yrotation Xrotation
							JOINT RightHand
							{
								OFFSET -3.444170 -0.000000 -0.000000
								CHANNELS 3 Zrotation Yrotation Xrotation
								JOINT RightFingerBase
								{
									OFFSET 0.000000 0.000000 0.000000
									CHANNELS 3 Zrotation Yrotation Xrotation
									JOINT RightHandIndex1
									{
										OFFSET -0.622530 -0.000000 -0.000000
										CHANNELS 3 Zrotation Yrotation Xrotation
										End Site
										{
											OFFSET 0.000000 0.000000 0.000000
										}
									}
								}
								JOINT RThumb
								{
									OFFSET 0.000000 0.000000 0.000000
									CHANNELS 3 Zrotation Yrotation Xrotation
									End Site
									{
										OFFSET 0.000000 0.000000 0.000000
									}
								}
							}
						}
					}
				}
			}
		}
	}
}
}
MOTION
Frames: 18
Frame Time: 0.008333
-9.995307 16.996110 0.136706 162.796443 86.807570 170.310733 6.038286 -7.531487 -3.295829 1.195957 -8.001446 -3.660419 -4.953796 -8.064844 -0.078434 9.445528 -18.896958 -9.814456 -2.273073 -0.146434 -0.478685 0.000000 0.000000 0.000000 12.654303 -2.146620 -1.672117 -36.996105 -14.641372 7.535095 178.645286 -80.416550 179.823947 17.628303 -2.766194 -0.533498 -0.260579 0.636165 -0.000000 0.000000 0.000000 0.000000 0.000000 0.000000 0.000000 11.149445 -18.338147 2.623333 66.906588 -30.434561 -12.515341 3.186526 39.045427 -0.008631 -2.093708 -4.288367 0.083730 0.128908 0.009620 -0.000000 0.000000 0.000000 0.000000 0.000000 0.000000 0.000000 
-9.802446 16.938474 0.147364 168.537250 87.069261 175.674967 6.581120 -7.428146 -2.955350 1.250563 -7.934246 -3.618664 -5.178148 -7.999724 -0.130382 9.619100 -18.658030 -9.935149 -2.435758 -0.158323 -0.517081 0.000000 0.000000 0.000000 11.889278 -1.983104 -1.504322 -37.089363 -14.132417 7.793190 178.656043 -80.136222 179.823467 17.813671 -2.994164 -0.575822 -0.271326 0.637801 -0.000000 0.000000 0.000000 0.000000 0.000000 0.000000 0.000000 11.850214 -18.059291 2.641509 67.033697 -29.190166 -13.294177 3.127205 38.557011 -0.008396 -3.101215 -4.144346 0.117336 0.128581 0.004216 -0.000000 0.000000 0.000000 0.000000 0.000000 0.000000 0.000000 
-9.614818 16.878895 0.156763 174.993771 87.353215 -178.248743 7.094540 -7.292638 -2.560025 1.289938 -7.831658 -3.570841 -5.430910 -7.900856 -0.211066 9.842053 -18.366732 -10.043955 -2.622078 -0.172307 -0.553921 0.000000 0.000000 0.000000 11.074627 -1.866012 -1.337009 -37.286365 -13.606385 8.069608 178.672989 -79.916549 179.821497 18.195583 -3.295440 -0.638002 -0.286452 0.640097 -0.000000 0.000000 0.000000 0.000000 0.000000 0.000000 0.000000 12.671468 -17.724097 2.668337 67.135267 -27.813351 -13.935221 3.060684 38.003077 -0.008249 -4.208328 -3.980447 0.151039 0.127351 -0.001113 -0.000000 0.000000 0.000000 0.000000 0.000000 0.000000 0.000000 
-9.432508 16.817967 0.165035 -177.986405 87.622324 -171.612525 7.546667 -7.135965 -2.115170 1.310543 -7.702242 -3.516564 -5.701634 -7.777319 -0.316917 10.106605 -18.021203 -10.133902 -2.826137 -0.187923 -0.587410 0.000000 0.000000 0.000000 10.229494 -1.788503 -1.172362 -37.617376 -13.084970 8.373886 178.699388 -79.808239 179.818600 18.732990 -3.660539 -0.718942 -0.304731 0.642546 -0.000000 0.000000 0.000000 0.000000 0.000000 0.000000 0.000000 13.586299 -17.338385 2.701458 67.219729 -26.298846 -14.424862 2.986779 37.364667 -0.008194 -5.411883 -3.788239 0.183235 0.125081 -0.006340 -0.000000 0.000000 0.000000 0.000000 0.000000 0.000000 0.000000 
-9.255447 16.756520 0.172876 -170.806552 87.820824 -164.823931 7.917458 -6.977468 -1.628031 1.310102 -7.563809 -3.457266 -5.985413 -7.646627 -0.450436 10.407636 -17.604345 -10.190399 -3.046425 -0.205181 -0.613434 0.000000 0.000000 0.000000 9.364802 -1.771958 -1.006839 -38.082834 -12.546732 8.708072 178.738863 -79.838936 179.815571 19.366197 -4.064630 -0.814357 -0.324615 0.644161 -0.000000 0.000000 0.000000 0.000000 0.000000 0.000000 0.000000 14.586418 -16.894261 2.737466 67.290669 -24.674797 -14.754916 2.904410 36.656551 -0.008268 -6.697323 -3.579817 0.212927 0.121629 -0.011367 -0.000000 0.000000 0.000000 0.000000 0.000000 0.000000 0.000000 
-9.083217 16.695497 0.180857 -163.808535 87.911812 -158.223138 8.217465 -6.829971 -1.111462 1.293137 -7.429477 -3.394958 -6.274035 -7.521069 -0.607357 10.736411 -17.110350 -10.205277 -3.277351 -0.223631 -0.629567 0.000000 0.000000 0.000000 8.495845 -1.809815 -0.837725 -38.703193 -11.994904 9.079680 178.793950 -80.063526 179.813246 20.022634 -4.490270 -0.919169 -0.344047 0.644147 -0.000000 0.000000 0.000000 0.000000 0.000000 0.000000 0.000000 15.648263 -16.392400 2.772150 67.349608 -22.948781 -14.908189 2.814553 35.877909 -0.008513 -8.036924 -3.369447 0.239313 0.117019 -0.016159 -0.000000 0.000000 0.000000 0.000000 0.000000 0.000000 0.000000 
-8.915266 16.636025 0.189578 -157.275591 87.890193 -152.087405 8.466358 -6.696907 -0.580082 1.265643 -7.303549 -3.332055 -6.560081 -7.403854 -0.782547 11.084878 -16.534206 -10.172369 -3.513108 -0.242762 -0.633827 0.000000 0.000000 0.000000 7.635880 -1.888919 -0.662177 -39.496154 -11.423391 9.492892 178.864921 -80.536170 179.812403 20.630621 -4.919672 -1.026904 -0.360883 0.641617 -0.000000 0.000000 0.000000 0.000000 0.000000 0.000000 0.000000 16.749319 -15.827712 2.801571 67.394096 -21.129813 -14.865515 2.719328 35.036746 -0.008979 -9.390007 -3.178959 0.262794 0.111438 -0.020749 -0.000000 0.000000 0.000000 0.000000 0.000000 0.000000 0.000000 
-8.750844 16.579371 0.199715 -151.420350 87.779441 -146.619642 8.671643 -6.574887 -0.049287 1.230715 -7.182978 -3.271240 -6.837261 -7.290957 -0.972175 11.446801 -15.870264 -10.086136 -3.748904 -0.262131 -0.624286 0.000000 0.000000 0.000000 6.798158 -1.999557 -0.477853 -40.473594 -10.804312 9.941780 178.949250 -81.302461 179.813705 21.126270 -5.335036 -1.129989 -0.373100 0.635566 -0.000000 0.000000 0.000000 0.000000 0.000000 0.000000 0.000000 17.873321 -15.188641 2.822401 67.417268 -19.235130 -14.603977 2.621519 34.156967 -0.009717 -10.707119 -3.035040 0.285072 0.105234 -0.025217 -0.000000 0.000000 0.000000 0.000000 0.000000 0.000000 0.000000 
-8.589035 16.526858 0.211206 -146.175711 87.608701 -141.737385 8.840488 -6.458136 0.462680 1.192934 -7.062543 -3.213356 -7.093388 -7.176571 -1.160882 11.810695 -15.134251 -9.955655 -3.974984 -0.280724 -0.603108 0.000000 0.000000 0.000000 5.992573 -2.088602 -0.285419 -41.661749 -10.170008 10.424695 179.041044 -82.442636 179.817466 21.467742 -5.729632 -1.222944 -0.379194 0.625426 -0.000000 0.000000 0.000000 0.000000 0.000000 0.000000 0.000000 18.983594 -14.484335 2.829415 67.416507 -17.242754 -14.109376 2.525947 33.237806 -0.010742 -11.926904 -2.946679 0.307448 0.098967 -0.029749 -0.000000 0.000000 0.000000 0.000000 0.000000 0.000000 0.000000 
-8.428998 16.479847 0.224147 -141.522308 87.404259 -137.408004 8.968329 -6.343587 0.937680 1.153436 -6.939564 -3.160290 -7.320723 -7.057618 -1.339703 12.167745 -14.333084 -9.786278 -4.186048 -0.298008 -0.571311 0.000000 0.000000 0.000000 5.228242 -2.128981 -0.084925 -43.068879 -9.517815 10.923102 179.131449 -84.010467 179.823777 21.636932 -6.094824 -1.300887 -0.378412 0.610548 -0.000000 0.000000 0.000000 0.000000 0.000000 0.000000 0.000000 20.059751 -13.713473 2.818382 67.387672 -15.157497 -13.376788 2.436748 32.309253 -0.012051 -12.984657 -2.921717 0.331125 0.093247 -0.034480 -0.000000 0.000000 0.000000 0.000000 0.000000 0.000000 0.000000 
-8.269902 16.439685 0.238796 -137.510737 87.194863 -133.669934 9.036928 -6.229983 1.359102 1.109661 -6.812928 -3.114612 -7.514843 -6.932891 -1.505316 12.512809 -13.474904 -9.580818 -4.379759 -0.313791 -0.529116 0.000000 0.000000 0.000000 4.520860 -2.123947 0.122089 -44.696278 -8.806220 11.396250 179.209690 -86.033439 179.832539 21.635179 -6.421607 -1.360124 -0.370546 0.590278 -0.000000 0.000000 0.000000 0.000000 0.000000 0.000000 0.000000 21.093452 -12.876699 2.787089 67.322031 -12.998727 -12.387655 2.357180 31.417407 -0.013595 -13.829780 -2.961003 0.356807 0.088669 -0.039452 -0.000000 0.000000 0.000000 0.000000 0.000000 0.000000 0.000000 
-8.111011 16.407448 0.254824 -134.064361 86.995165 -130.434946 9.042270 -6.116534 1.710964 1.062565 -6.683032 -3.076719 -7.669002 -6.802856 -1.645099 12.836057 -12.592820 -9.355242 -4.550751 -0.327552 -0.480503 0.000000 0.000000 0.000000 3.880961 -2.050984 0.331119 -46.547963 -8.050391 11.801439 179.264484 -88.555679 179.843333 21.488793 -6.705436 -1.400052 -0.356172 0.564457 -0.000000 0.000000 0.000000 0.000000 0.000000 0.000000 0.000000 22.060594 -12.002729 2.732585 67.217453 -10.744284 -11.128706 2.291106 30.578376 -0.015277 -14.419916 -3.038544 0.381195 0.085786 -0.044674 -0.000000 0.000000 0.000000 0.000000 0.000000 0.000000 0.000000 
-7.951714 16.384022 0.271260 -131.026403 86.801884 -127.537887 9.001731 -6.002292 1.977921 1.015933 -6.551472 -3.048912 -7.782261 -6.669701 -1.754511 13.121641 -11.673880 -9.113660 -4.699319 -0.339394 -0.426385 0.000000 0.000000 0.000000 3.303447 -1.880981 0.545130 -48.603831 -7.297830 12.105708 -0.713844 -88.381329 -0.144475 21.251684 -6.937692 -1.421954 -0.336943 0.533254 -0.000000 0.000000 0.000000 0.000000 0.000000 0.000000 0.000000 22.943300 -11.069827 2.652684 67.091128 -8.436275 -9.690763 2.239695 29.851545 -0.016938 -14.692776 -3.112974 0.397391 0.084682 -0.050188 -0.000000 0.000000 0.000000 0.000000 0.000000 0.000000 0.000000 
-7.791575 16.370014 0.288093 -128.467374 86.630588 -125.047579 8.902607 -5.886011 2.154902 0.967003 -6.417720 -3.030092 -7.854071 -6.533093 -1.826536 13.364590 -10.769143 -8.871844 -4.823360 -0.349161 -0.370759 0.000000 0.000000 0.000000 2.800183 -1.636060 0.756750 -50.843808 -6.532324 12.240649 -0.731170 -84.786059 -0.131482 20.973790 -7.100196 -1.425722 -0.313987 0.496789 -0.000000 0.000000 0.000000 0.000000 0.000000 0.000000 0.000000 23.729318 -10.129446 2.548915 66.936505 -6.043901 -8.027620 2.203865 29.243498 -0.018413 -14.660000 -3.140156 0.399296 0.085402 -0.055863 -0.000000 0.000000 0.000000 0.000000 0.000000 0.000000 0.000000 
-7.630229 16.365684 0.304561 -126.319063 86.478740 -122.897159 8.757720 -5.765493 2.239015 0.917616 -6.281354 -3.018943 -7.886396 -6.392919 -1.853805 13.553978 -9.907835 -8.643818 -4.922725 -0.356876 -0.317397 0.000000 0.000000 0.000000 2.360855 -1.309249 0.964081 -53.225370 -5.799595 12.165210 -0.788455 -80.662210 -0.118367 20.721197 -7.166632 -1.411740 -0.288975 0.455641 -0.000000 0.000000 0.000000 0.000000 0.000000 0.000000 0.000000 24.403239 -9.209180 2.422140 66.761246 -3.558330 -6.164426 2.182976 28.770869 -0.019518 -14.327932 -3.066866 0.380211 0.087585 -0.061687 -0.000000 0.000000 0.000000 0.000000 0.000000 0.000000 0.000000 
-7.467481 16.371059 0.320207 -124.567226 86.348774 -121.081024 8.571374 -5.637590 2.232629 0.866228 -6.140151 -3.017954 -7.886805 -6.247964 -1.848895 13.680159 -9.059104 -8.417780 -5.002945 -0.363212 -0.263054 0.000000 0.000000 0.000000 1.976344 -0.933538 1.172646 -55.691477 -5.096243 11.836768 -0.880989 -76.051325 -0.105689 20.556254 -7.099723 -1.378394 -0.263111 0.410538 -0.000000 0.000000 0.000000 0.000000 0.000000 0.000000 0.000000 24.960824 -8.272975 2.277849 66.583694 -1.062205 -4.203586 2.171501 28.498323 -0.020094 -13.708671 -2.851084 0.337035 0.090321 -0.067854 -0.000000 0.000000 0.000000 0.000000 0.000000 0.000000 0.000000 
-7.303138 16.385842 0.334679 -123.179156 86.241094 -119.576602 8.350552 -5.499109 2.143991 0.812978 -5.991321 -3.024521 -7.858924 -6.095574 -1.808096 13.738038 -8.259024 -8.206828 -5.063862 -0.368153 -0.211398 0.000000 0.000000 0.000000 1.629609 -0.517718 1.380388 -58.180530 -4.453444 11.234552 -0.999262 -71.004096 -0.093861 20.532182 -6.857906 -1.322176 -0.237036 0.362571 -0.000000 0.000000 0.000000 0.000000 0.000000 0.000000 0.000000 25.389376 -7.358662 2.119786 66.404505 1.462174 -2.145677 2.166169 28.420706 -0.020049 -12.865541 -2.459384 0.271068 0.092979 -0.074546 -0.000000 0.000000 0.000000 0.000000 0.000000 0.000000 0.000000 
-7.137080 16.409518 0.347757 -122.117997 86.156400 -118.359753 8.100118 -5.346517 1.983402 0.757066 -5.831211 -3.038661 -7.808372 -5.932583 -1.739381 13.723676 -7.503294 -8.008280 -5.107939 -0.371991 -0.161792 0.000000 0.000000 0.000000 1.303619 -0.085786 1.590017 -60.625992 -3.874656 10.352735 -1.130377 -65.593313 -0.083101 20.683896 -6.400519 -1.236975 -0.210702 0.313109 0.000000 0.000000 0.000000 0.000000 0.000000 0.000000 0.000000 25.680064 -6.460853 1.953821 66.229794 3.973839 -0.045216 2.160965 28.561130 -0.019379 -11.866474 -1.880996 0.188708 0.094832 -0.082085 -0.000000 0.000000 0.000000 0.000000 0.000000 0.000000 0.000000 
